HIERARCHY
ROOT joint_0
{
	OFFSET 0.000000 0.000000 0.000000
	CHANNELS 6 Xposition Yposition Zposition Zrotation Yrotation Xrotation 
	JOINT joint_1
	{
		OFFSET 1.363060 -1.794630 0.839290
		CHANNELS 3 Zrotation Yrotation Xrotation
		JOINT joint_2
		{
			OFFSET 2.448110 -6.726130 0.000000
			CHANNELS 3 Zrotation Yrotation Xrotation
			JOINT joint_3
			{
				OFFSET 2.562200 -7.039590 0.000000
				CHANNELS 3 Zrotation Yrotation Xrotation
				JOINT joint_4
				{
					OFFSET 0.157640 -0.433110 2.322550
					CHANNELS 3 Zrotation Yrotation Xrotation
					End Site
					{
						OFFSET 0.000000 0.000000 0.000000
					}
				}
			}
		}
	}
	JOINT joint_5
	{
		OFFSET -1.305520 -1.794630 0.839290
		CHANNELS 3 Zrotation Yrotation Xrotation
		JOINT joint_6
		{
			OFFSET -2.542530 -6.985550 0.000000
			CHANNELS 3 Zrotation Yrotation Xrotation
			JOINT joint_7
			{
				OFFSET -2.568260 -7.056230 0.000000
				CHANNELS 3 Zrotation Yrotation Xrotation
				JOINT joint_8
				{
					OFFSET -0.164730 -0.452590 2.363150
					CHANNELS 3 Zrotation Yrotation Xrotation
					End Site
					{
						OFFSET 0.000000 0.000000 0.000000
					}
				}
			}
		}
	}
	JOINT joint_9
	{
		OFFSET 0.028270 2.035590 -0.193380
		CHANNELS 3 Zrotation Yrotation Xrotation
		JOINT joint_10
		{
			OFFSET 0.056720 2.048850 -0.042750
			CHANNELS 3 Zrotation Yrotation Xrotation
			JOINT joint_11
			{
				OFFSET -0.054170 1.746240 0.172020
				CHANNELS 3 Zrotation Yrotation Xrotation
				JOINT joint_12
				{
					OFFSET 0.104070 1.761360 -0.123970
					CHANNELS 3 Zrotation Yrotation Xrotation
					End Site
					{
						OFFSET 0.000000 0.000000 0.000000
					}
				}
			}
			JOINT joint_13
			{
				OFFSET 3.362410 1.200890 -0.311210
				CHANNELS 3 Zrotation Yrotation Xrotation
				JOINT joint_14
				{
					OFFSET 4.983000 -0.000000 -0.000000
					CHANNELS 3 Zrotation Yrotation Xrotation
					JOINT joint_15
					{
						OFFSET 3.483560 -0.000000 -0.000000
						CHANNELS 3 Zrotation Yrotation Xrotation
						JOINT joint_16
						{
							OFFSET 0.000000 0.000000 0.000000
							CHANNELS 3 Zrotation Yrotation Xrotation
							End Site
							{
								OFFSET 0.000000 0.000000 0.000000
							}
						}
					}
				}
			}
			JOINT joint_17
			{
				OFFSET -3.136600 1.374050 -0.404650
				CHANNELS 3 Zrotation Yrotation Xrotation
				JOINT joint_18
				{
					OFFSET -5.241900 -0.000000 -0.000000
					CHANNELS 3 Zrotation Yrotation Xrotation
					JOINT joint_19
					{
						OFFSET -3.444170 -0.000000 -0.000000
						CHANNELS 3 Zrotation Yrotation Xrotation
						JOINT joint_20
						{
							OFFSET 0.000000 0.000000 0.000000
							CHANNELS 3 Zrotation Yrotation Xrotation
							End Site
							{
								OFFSET 0.000000 0.000000 0.000000
							}
						}
					}
				}
			}
		}
	}
}
MOTION
Frames: 9
Frame Time: 0.031667
0.383414 16.863363 -1.810240 -1.405944 0.763194 0.967095 -17.500201 1.751756 -7.778628 -1.240739 3.213343 11.647879 1.171729 -1.274793 -0.622607 -0.080958 -0.030228 0.116293 23.115048 0.805904 -2.332842 0.422338 -2.517160 5.090461 0.679770 -0.110277 -10.007949 -0.130985 0.889719 -3.380454 0.651676 -0.491254 -9.576401 0.409518 -0.068435 4.349901 1.977577 -1.424120 11.668404 -0.376649 -0.750828 6.927206 -22.178691 -10.033952 -2.319206 10.149539 -16.951308 -9.182380 0.473741 -3.600849 -1.879742 -7.207778 -0.080170 -0.049768 10.140632 4.847979 -15.117005 -11.214626 16.609208 -9.921792 0.083818 1.711447 -4.908218 6.972193 -0.076019 -0.088383 
0.383318 16.859610 -1.817252 -1.379972 0.747692 0.969901 -17.934216 3.406564 -7.579772 -1.110978 2.112758 8.854926 0.800327 -2.044400 0.105195 -0.162108 0.167807 0.788071 23.094934 -1.457230 -1.402254 -0.284683 -1.481849 1.857145 0.188076 1.207073 -9.983790 -0.223865 0.921770 -3.889765 0.248485 -0.384217 -10.561648 0.763834 -0.631330 6.294510 1.585767 -1.877219 12.214606 -0.658351 -1.004679 6.916690 -21.021373 -9.736836 -1.938575 9.200043 -15.716237 -10.680924 0.558908 -3.721185 -1.874439 -7.277763 -0.164252 -0.123265 10.731302 4.198465 -12.243986 -11.402476 15.763742 -11.738754 0.034574 2.215206 -2.267889 6.882864 -0.152528 -0.193939 
0.359751 16.856756 -1.922252 -1.278687 2.231196 1.264987 -18.615903 3.522754 -8.090554 -1.402833 1.155811 6.671145 0.274653 0.050147 0.105397 -0.193503 -0.198451 -0.100724 23.463413 -1.226529 0.653089 -0.398855 -0.601916 -1.526203 -0.349063 1.592100 -10.266029 -0.341720 1.904415 -6.933119 0.564691 -0.255252 -11.035801 1.027326 -0.646104 7.476787 1.249457 -2.617806 12.692918 -0.906716 -1.306160 6.755510 -20.003830 -8.843298 0.046260 8.477468 -14.846131 -11.891104 0.452487 -4.175048 -2.229091 -7.317081 -0.199347 -0.153871 10.731155 3.647022 -10.436924 -10.998689 15.169100 -13.056203 0.136012 2.323296 -1.777503 6.839414 -0.184463 -0.228810 
0.356616 16.846096 -1.948889 -0.875224 1.924792 0.723241 -19.252951 2.981281 -7.539998 -0.869438 0.585747 5.034067 -0.484923 1.821218 -0.448580 -0.226371 -0.636075 -1.157659 23.240187 -0.679787 2.212043 -0.609686 -0.070003 -3.779944 0.415057 0.711718 -10.255863 -0.424918 2.205180 -8.113177 0.759425 -0.451334 -11.890309 0.991655 -0.807175 8.601038 1.080010 -2.886403 13.003829 -1.307134 -1.593875 6.664630 -20.125607 -8.491111 0.522647 8.295980 -13.975188 -12.819073 0.757438 -4.602718 -3.017501 -7.368450 -0.244624 -0.199217 10.595711 2.285394 -8.405675 -10.795068 14.379067 -14.423707 -0.061723 2.557038 -1.803363 6.785074 -0.224858 -0.275017 
0.352688 16.855104 -1.909324 -1.206381 1.764283 0.913657 -20.341979 2.235322 -7.117990 -1.108466 0.121880 4.199116 -0.698079 2.945318 -1.389268 -0.284987 -0.881095 -1.713313 23.629824 -1.200144 2.250676 -0.688918 -0.071965 -4.220138 0.872872 -0.464012 -9.006144 -0.465040 1.971651 -7.696879 0.859169 -0.854223 -12.726418 1.062285 -0.374527 9.345765 0.610694 -3.165733 13.596970 -1.423461 -1.940292 6.445193 -19.595900 -7.843247 -0.274066 8.007807 -13.325768 -13.853636 1.043085 -5.044477 -3.109750 -7.434884 -0.316343 -0.276300 10.649832 2.367703 -8.050591 -10.760265 13.900614 -15.988007 -0.104964 2.781453 -1.443370 6.700112 -0.288988 -0.349280 
0.353326 16.855556 -1.907733 -1.240121 1.724975 0.923689 -21.056132 1.225347 -6.873933 -0.963930 -0.389626 3.344830 -0.604226 3.813464 -2.050023 -0.331335 -1.036954 -2.049322 23.963131 -1.663063 2.585400 -0.964619 -0.165520 -3.705742 0.595958 -0.998734 -8.340051 -0.431229 1.081639 -5.273764 0.858565 -1.013755 -13.397151 1.551970 -0.579383 10.499123 0.619437 -3.645187 13.846449 -1.247109 -2.202130 6.288828 -18.902019 -7.143224 -0.727859 8.030964 -13.094402 -15.157492 1.283923 -5.116563 -2.762139 -7.479521 -0.373272 -0.341551 10.025583 2.684661 -6.864626 -10.700146 13.584719 -17.286202 -0.312489 3.354060 -0.759264 6.628622 -0.339986 -0.408001 
0.353497 16.856457 -1.906577 -1.280150 1.729442 0.936999 -21.588613 0.679577 -6.415297 -1.114465 -1.023850 2.350595 -1.021094 4.482759 -3.525511 -0.375866 -1.134837 -2.135253 24.027925 -2.117941 2.372299 -1.319334 -0.773839 -2.565131 0.713097 -1.781893 -7.179135 -0.441394 0.380007 -3.639550 0.724902 -1.552677 -13.148166 1.689119 -0.944757 11.363251 0.687392 -3.560913 14.300943 -1.072102 -2.481550 6.122412 -18.142259 -6.172333 -2.163519 7.640544 -13.123755 -16.257578 1.505167 -5.815067 -2.685008 -7.524896 -0.428674 -0.395066 9.663670 2.325559 -5.929993 -10.622559 13.245383 -18.849792 -0.399875 3.657892 0.261949 6.558509 -0.388587 -0.459695 
0.354524 16.854355 -1.908769 -1.262170 1.675628 0.897137 -21.883084 -0.712815 -6.590945 -1.156226 -1.188587 1.581080 -0.625565 2.828782 -4.057114 -0.382710 -1.183996 -2.191332 24.388384 -2.348369 0.766178 -1.049491 -1.511119 -0.191061 0.231288 -2.095824 -6.095116 -0.432324 0.028623 -2.579371 0.671190 -1.762800 -12.111838 1.647953 -1.228284 11.571957 0.750206 -3.315345 14.959485 -0.702908 -2.374651 6.222525 -17.825171 -6.195238 -2.944608 7.970608 -13.421213 -16.936391 1.412568 -5.953804 -2.915291 -7.526708 -0.438421 -0.408935 9.856962 2.534644 -4.706880 -10.971506 13.424274 -19.681038 -0.370288 3.872654 0.463883 6.546762 -0.396540 -0.464750 
0.355215 16.853754 -1.910480 -1.258266 1.650171 0.888190 -22.439842 -1.545415 -6.382127 -1.033011 -1.612818 0.722081 -0.097824 1.506156 -4.139321 -0.395733 -1.076052 -1.877840 24.973896 -2.135397 -0.211790 -1.296420 -2.246345 1.927982 0.268942 -2.569563 -5.903573 -0.430755 -0.183471 -1.837681 1.243702 -1.782496 -10.827602 1.476612 -1.523652 11.943573 0.853975 -3.312045 15.291716 -0.552265 -2.407531 6.238092 -17.345242 -5.518533 -2.954054 8.525304 -13.794237 -17.544822 1.627336 -6.136376 -3.442465 -7.527204 -0.445200 -0.422641 9.633823 2.296073 -4.335515 -11.002936 13.793868 -20.278892 -0.303688 4.143352 1.514317 6.535769 -0.401965 -0.472288 
